<svg xmlns="http://www.w3.org/2000/svg" height="800" width="1200" viewBox="-80.20215 -130.69075 695.0853 784.1445"><path d="M91.514 309.028c0-.003-28.314 6.296-28.314 6.296l16.697-25.935 19.117-43.372-57.206-24.938L6.675 165.7 2.321 95.62l26.565-55.153 55.37-34.065 68.908-3.624 42.012 21.16 23.806 1.565-18.069 16.78-54.999-5.556-48.852 13.16-27.458 31.476-8.896 44.115 18.137 33.262 24.86 2.964 88.371-87.884 46.408-6.425 45.961 26.04 20.682-15.87 30.705-10.457 37.615 12.75 62.867 75.885 22.8 4.236 18.9-25.472-1.769-46.48-25.412-36.27-35.619-12.03-28.816 5-35.984-2.85-5.1-11.35 29.8-11.7 23.9-12.1 36.6-2.484 53.9 20.984 37.9 52.5 4.9 74.5-32.7 60.6-46 23.1 1.2 17.7 12.8 1.6-5.3 11.9-29.9 1.1-57.6-25.5 8.3 34.6h28.3l8.4 29.3-28.3 33.1 15.3 18.2-19.5 18.2-3 27.7-39.4 11.6 9.6 31-61.1 54.8-41.95-52.2-30.222-2.595 8.613-30.996-34.502-15.85.604-23.393-23.883-23.732-18.866-65.334-61.694 21.897z" fill="#fff"/><path d="M113.007 304.4c-3.634.247-8.365 1.875-11.539 7.564-2.59 4.646-8.66 5.387-11.495 4.45-4.72-1.56-10.755-2.641-16.6 1.524-5.845 4.164-12.157 1.015-11.05-6.576 1.107-7.59 3.85-14.351 11.127-18.538 15.895-9.144 4.848-15.508 13.572-24.685 8.741-9.195 6.81-12.01 6.52-24.497-29.543-4.438-46.287-12.953-64.984-36.313C9.861 183.968 2.613 164.739.675 135.45c-1.938-29.288-.258-48.27 12.396-72.58 12.654-24.31 25.977-36.013 49.065-48.152C85.224 2.58 107.846-.326 128.756.028c20.91.353 34.843 1.885 46.658 8.626 11.814 6.74 22.622 15.224 29.512 15.285 6.891.06 11.582-1.744 14.931-4.31.894 22.703-19.539 24.675-37.819 25.155-18.28.479-29.514-7.083-46.35-4.27-16.838 2.813-44.405 10.475-57.834 33.85-13.429 23.375-13.887 31.638-12.77 51.24 1.115 19.603 17.987 34.228 27.511 34.387 9.523.159 11.65-2.6 19.985-8.036 8.337-5.438 50.896-58.122 65.418-69.956 14.523-11.834 28.854-15.488 44.328-15.678 15.474-.19 19.428.335 31.908 5.45 12.48 5.114 20.15 14.533 30.211 20.29 5.143-3.026 8.338-7.546 13.057-10.995 16.877-12.335 25.646-15.66 45.705-13.707 11.53 1.122 26.066 7.708 34.74 15.25 15.445 13.429 28.205 32.125 38.516 46.328 8.03 11.06 17.477 24.295 30.965 28.432 14.727 4.515 25.81-14.56 27.436-25.14.922-5.994 2.125-11.248 2.135-17.846.01-6.6-.664-14.607-2.566-21.484-1.902-6.877-5.16-13.72-8.688-19.394-5.742-9.235-15.137-18.9-24.912-23.871-5.486-2.79-18.393-7.863-26.529-8.041-9.969-.216-17.564 3.133-26.78 3.76-11.157.762-31.085 3.27-39.83-5.35-5.567-5.484-6.267-9.143-7.218-16.295 2.46 2.026 5.898 3.358 8.96 3.617 6.985.59 13.526-5.114 19.165-8.42 4.645-2.722 11.223-7.588 17.324-10.047 15.676-6.32 34.932-6.138 51.48-4.445 13.264 1.356 30.461 7.257 42.094 13.84 11.688 6.612 22.951 17.76 31.201 28.27 10.38 13.225 16.053 24.57 19.812 41.064 4.805 21.062 6.137 52.702.328 73.469-4.578 16.365-19.779 41.504-32.719 53.827-12.762 12.155-27.498 18.022-44.256 21.23.656 3.383.764 6.537 1.631 9.31 1.232 3.936 3.588 8.324 8.428 6.936 1.93-.553 2.963-1.032 5.508 1.194 2.543 2.226 1.22 10.825-5.938 14.684-3.629 1.957-7.459 2.382-13.27 2.498-5.813.116-14.884.14-21.194-.964-6.309-1.104-10.078-6.111-17.066-6.895-10.799-1.208-19.068-9.01-27.727-14.59-3.613-2.33-4.832-2.353-6.914-3.53 1.125 3.444 2.625 7.02 3.373 10.332.75 3.31.43 6.378.828 9.028.396 2.648 1.131 4.707 1.56 6.855 1.73 1.547 2.282 3.9 5.188 4.64 2.908.739 7.461-.412 10.436-.812 2.975-.4 4.97-2.021 7.303-1.577 2.336.443 4.55 2.115 6.506 3.682 1.957 1.567 3.64 1.796 5.223 5.706 1.584 3.91 3.037 11.917 3.254 17.269.217 5.352-.383 10.183-1.969 14.43s-2.98 6.13-7.275 10.336c-4.295 4.207-11.289 10.38-18.268 14.68 1.285 1.903 1.855 3.645 3.86 5.71 2.003 2.066 6.181 4.38 8.04 6.56 1.857 2.179 2.8 3.742 2.826 6.186.03 2.443-.09 5.619-2.074 8.283-4.94 6.633-10.785 7.82-17.89 10.94 1.194 7.463 2.17 12.794.442 20.245-.705 3.036-2.27 9.92-6.016 11.686s-10.969.91-15.54 1.637c-4.573.727-7.132 1.417-10.696 2.125-2.166 3.13-5.39 6.586-6.496 9.392-1.107 2.807-.773 3.813.156 6.679.93 2.866 4.092 7.039 4.988 10.395.896 3.356 1.07 6.969.234 10.334-.838 3.365-2.27 5.807-5.139 8.795-2.867 2.989-8.508 5.336-11.318 7.758-2.812 2.423-5.61 2.714-4.844 6.723 1.055 5.506 9.1 14.436 14.92 16.562 3.488 1.275 8.17.873 12.406-.915-.287 4.703-4.357 7.873-7.016 10.996 7.201-2.06 14.184-6.001 19.014-11.226-1.498 4.538-6.652 11.823-14.36 18.22-7.71 6.397-7.663 5.088-11.495 7.633 6.992 1.405 13.494 1.025 18.91.052-2.969 1.637-7.836 3.939-14.283 4.616-6.447.676-10.422.198-16.232-1.213-5.81-1.412-11.115-6.694-18.156-10.335.686 2.612 1.174 5.753 4.135 8.439s7.441 4.052 12.203 6.375c-6.062-.688-12.432-.896-18.389-2.21-4.41-.972-7.373-2.004-10.6-3.602-3.225-1.598-5.715-3.93-8.572-5.893 1.37 2.615 1.775 5.69 4.105 7.847 2.33 2.156 6.117 2.959 9.18 4.44-3.195-.07-6.268.623-9.58-.21-3.314-.833-6.422-2.142-9.867-4.68-3.445-2.538-6.998-5.663-9.938-8.858-2.938-3.195-6.566-7.337-7.664-10.283-1.1-2.947.66-5.008.99-7.51-2.029 1.334-4.525 2.068-6.084 4.003-1.559 1.935-2.94 3.702-2.25 7.075s3.803 7.496 6.004 11.248c-6.568-5.371-10.236-7.44-11.799-13.918-1.463-6.066 2.322-11.572 5.2-16.16 1.428-2.277 3.566-4.397 4.902-6.596-2.967-2.903-6.358-5.398-8.9-8.71-2.543-3.31-3.61-7.79-6.206-10.956-2.596-3.168-6.088-5.173-9.129-7.756 2.673 5.742 7.066 12.785 8.02 17.229.953 4.444-1.069 7.164-2.646 9.563-1.578 2.399-4.124 2.934-6.539 4.408-2.415 1.475-6.17.312-7.61 2.5-1.438 2.189-1.824 5.48-.449 7.649l5.64 8.902c-2.078-1.05-5.658-4.1-7.272-6.264-1.614-2.164-4.09-4.163-4.429-7.09-.339-2.924-.504-5.463 1.391-8.07 1.896-2.604 7.086-3.476 9.41-5.48 2.322-2.002 3.625-3.306 3.492-5.895-.132-2.59-2.66-4.441-4.835-6.073-6.637-4.978-15.15-9.565-20.787-15.565-3.184-3.39-4.712-6.127-5.352-8.466-.639-2.338.037-4.162 1.62-7.038 1.581-2.877 7.006-6.718 7.666-9.843.66-3.124-2.08-3.795-4.554-4.897-2.473-1.102-7.17.565-9.464-1.352-2.293-1.917.674-5.945-1.91-8.154-2.585-2.21-8.5-.976-11.553-3.352-3.053-2.377-4.315-5.327-5.367-8.775-1.052-3.448-1.17-7.225-.458-9.722.713-2.497 2.855-2.934 4.147-4.228 1.292-1.294 2.413-2.367.691-4.297-1.722-1.93-7.365.108-10.609-2.37-3.244-2.476-1.258-8.41-3.552-10.91-2.293-2.501-6.409-1.522-8.58-2.321-2.172-.8-3.024 2.02-4.356-2.438-1.332-4.46-1.368-17.75-3.16-22.71-1.792-4.96-5.31-.335-6.945-5.265-1.634-4.93-.085-12.812-.82-20.257l-3.336-20.257c-11.634 7.815-19.314 10.269-31.813 12.477-1.043 30.582-3.916 48.59 6.464 82.52 10.38 33.928 31.387 53.924 59.726 82.649-37.395-28.016-55.248-50.792-66.422-79.97-11.176-29.182-9.03-53.586-7.906-81.686zm198.708-12.292c2.877.129 6.373.859 8.393 2.17 2.021 1.313 4.166 2.385 6 4.252 4.576 4.66 8.008 10.28 9.525 16.738.967 4.117 1.111 9.397 1.463 14.23-1.385-4.467-2.316-9.126-4.289-13.13-3.11-6.311-8.396-12.472-14.959-15.31-2.166-.937-3.61-.763-4.803-.597.533.895 1.426 1.645 1.465 2.956.04 1.31-.254 3.876-2.477 4.954-3.584 1.739-7.568.516-10.336-1.931-2.79-2.466-3.742-6.638-2.28-10.223 1.74-4.272 8.374-4.283 12.298-4.11zm-36.072-6.08c.361-7.345 3.012-13.54 9.594-17.141 3.404-1.862 8.648-4.27 13.467-4.836 4.63-.543 15.89-.146 22.662 2.945 5.201 2.374 8.744 6.07 13.311 8.77 4.566 2.703 7.814 4.514 12.162 7.544 6.674 4.65 10.586 9.772 15.213 12.842 2.225 1.475 5.355 1.256 8.31 2.158-2.298.682-5.3 1.434-7.778.642-3.09-.988-7.41-3.813-9.807-5.838-4.236-3.578-6.432-5.324-11.055-8.023-2.76-1.608-7.305-3.503-10.338-5.481-3.035-1.978-8.303-6.318-11.219-7.787-3.707-1.866-10.38-2.904-14.508-2.783-5.686.166-13.916 1.104-18.316 5.096-4.37 3.968-6.03 7.459-5.045 12.612 1.646-1.896 2.742-4.278 4.391-5.688 3.416-2.918 7.336-3.06 11.588-2.506 4.777.622 7.182 3.38 8.76 7.916-1.062-.78-3.014-2.493-4.555-3.024-3.617-1.248-6.352-.864-9.74.953-4 2.146-2.912 5.322-3.488 8.854-.264 1.629-.879 2.94-1.318 4.412-1.504-.398-2.895-1.024-4.033-2.152.047 1.65-.193 3.093.145 4.949.336 1.855 1.24 4.059 1.86 6.088-2.786-2.786-5.636-5.38-7.435-8.977-1.8-3.6-3.02-7.593-2.828-11.545zm4.82-53.46c2.053-3.047 2.654-7.721 3.92-11.521-.506 4.813.467 10.106-1.883 13.592-2.35 3.486-6.477 2.875-9.896 3.889 2.66-2.028 5.805-2.913 7.86-5.96zm-49.15 71.368c2.635-2.134 9.75-.428 15.07-.047l-11.472 2.938c-.356 1.3-.195 2.792-1.068 3.9-.874 1.11-2.534 1.522-3.8 2.28.125-3.417-1.367-6.938 1.27-9.071zm37.49-148.22c3.176 1.71 7.207 3.97 10.012 4.04 2.805.07 3.54-1.833 5.19-2.932 2.595 8.465 5.575 17.766 9.995 25.447 1.852 3.218 3.033 1.722 4.441 4.956 1.406 3.233 2.031 9.812 3.365 13.943 1.336 4.13 3.078 7.17 4.617 10.756-3.908-5.537-8.957-12.597-11.135-17.205-2.176-4.607-.783-5.008-2.545-9.396-1.762-4.388-5.324-11.228-7.986-16.842-1.906.253-4.266.6-5.715.153-1.449-.447-1.16-1.988-2.469-2.984-1.31-.996-3.514-.61-5.35-2.2-1.836-1.59-2.254-4.85-2.42-7.736zm-17.1 41.769c2.988-.262 6.7.539 9.5.38 2.798-.16 4.796-.885 7.195-1.328-.445-4.216-.023-11.962-3.915-14.777-2.514-1.818-12.839-.45-15.597.146-6.206 1.338-13.433 5.042-19.435 7.358 5.752-4.018 10.721-7.742 17.62-9.816 4.147-1.247 13.825-2.868 18.105-1.712 1.954.527 2.35 1.336 3.534 2.992 4.074 5.688 4.062 10.604 5.12 17.23 1.038 1.619 2.145 2.699 2.987 4.369.84 1.67 1.316 4.298 1.551 6.446-1.066-1.546-.414-3.485-3.367-4.636-2.955-1.151-7.479-.076-11.46.34 2.902 2.094 4.344 4.11 4.455 8.538.13 5.198-4.27 8.939-8.866 9.295-6.379.495-9.668-.906-12.248-6.358-1.13-2.388-.31-5.261-.405-7.59-7.665.534-7.54.284-13.142 4.955 3.045 4.46 4.963 7.026 9.995 9.695 2.822 1.498 6.017 2.954 9.514 3.549 3.498.595 9.235 1.17 12.91.606 3.674-.564 5.756-1.613 8.48-4.132 2.725-2.52 2.975-6.128 4.04-8.98-.243 2.745-.558 6.24-1.577 8.232-3.1 6.053-8.46 7.847-14.862 7.867-6.144.02-13.744-1.397-19.46-3.767-4.57-1.894-12.146-7.258-13.944-11.918-1.229-3.184-.256-7.091-.385-10.637 6.328-4.208 7.894-3.173 15.381-4.405 3.132-.516 5.286-1.68 8.275-1.942zm-36.862-28.501c.178-2.521.457-2.467.686-3.701-5.765-1.542-8.077 2.198-11.457 9.144-1.265 2.599-.013 4.146-1.37 5.857-1.355 1.71-3.539 1.47-5.74 3.114-2.2 1.642-4.382 4.787-6.44 6.488-4.223 3.49-9.93 5.622-14.829 7.97 3.345-2.467 9.836-6.21 11.936-9.796 1.114-1.901.95-5.486 2.683-7.195 1.733-1.71 2.34-2.893 4.578-3.33 2.238-.435 1.338-3.03 2.06-5.091.722-2.062 2.16-3.526 3.69-5.586 1.53-2.06 3.46-5.153 6.481-6.276 3.021-1.124 7.732.09 10.02-.556 2.285-.647.972-2.31 2.633-3.307 1.663-.998 4.896-.558 7.117-1.625 3.937-1.893 5.82-5.053 8.188-8.436.344 7.282.26 12.525-2.357 19.376-2.947 7.71-5.934 12.253-14.298 16.995-2.882 1.633-5.75 2.2-8.139 3.057 1.393-1.9 3.387-2.725 4.18-5.7.791-2.977.2-8.88.378-11.402zM349.88 204.49c-3.977.259-4.92-.264-8.102 1.98 1.725 2.684 3.45 5.368 5.172 8.052-.152-5.298.364-6.36 2.93-10.032zm-10.42-3.85c5.508-2.346 10.307-4.244 16.3-4.62 2.401-.15 6.13.222 8.556.332 2.066-3.042 4.7-5.441 5.664-8.913.64-2.303.324-12.992-.807-15.767-3.295-8.076-6.498-8.417-11.033-13.043-3.29-3.355-3.422-8.464-4.406-14.19-.36-2.102-1.393-4.763-1.877-6.933-5.928-1-12.303-1.328-19.123-.987 3.307-3.172 6.504-6.07 7.453-10.832.947-4.762.176-10.617-2.53-14.887-2.708-4.27-7.032-7.99-11-11.47-3.972-3.478-9.663-6.35-13.425-9.196 4.893-1.752 9.89-4.326 14.682-5.255 12.486-2.422 23.244 1.282 35.287 8.563 7.002 4.235 12.793 8.258 20.113 15.92 7.318 7.663 16.395 21.718 23.48 30.053 7.085 8.335 12.805 14.927 18.986 19.898 6.182 4.972 11.777 6.388 17.664 9.58l9.176 9.745 7.426-9.19 11.95 1.352 2.468-13.412 10.967-3.005-1.789-18.08 7.885-5.596-5.926-11.25 6.021-12.291-7.85-14.051 3.027-13.53-9.088-7.744-1.186-14.377-12.678-4.836-5.086-12.508-14.254-.16-6.992-9.285-9.596.672-10.697-1.165-6.049-4.466-8.779 5.828-10.623-5.54-21.117 8.018L384.42 22.05l14.262-2.278 10.926-2.785 14.756 4.846 12.988-3.29 12.523 7.403 13.252-.733 6.51 11.68 13.195 1.524 7.14 12.987 8.298 4.53 2.203 16.638 7.391 7.01-3.25 14.557 8.707 11.024-8.164 11.812 8.73 7.383-11.16 9.89 11.303 11.772-13.65 4.402 8.891 12.625-11.15 1.924 7.312 13.882-12.566-.167 6.33 10.398-13.783-1.66 3.297 14.96-10.416-9.163-3.568 18.13-7.188-13.018-3.893 16.237-8.873-11.973.242 17.026-9.807-15.31c2.068 8.687 1.654 18.198 7.36 26.387 17.675-2.392 29.228-6.846 42.77-19.877 12.334-11.868 27.076-36.613 31.068-52.308 4.555-17.91 4.695-50.85.21-69.084-4.319-17.556-9.93-25.942-19.958-40.268-9.584-10.18-19.01-20.932-31.174-28.191-17.856-10.655-40.752-13.528-61.102-13.251-11.268.154-18.816 2.318-25.553 4.768-11.78 4.284-21.203 13.629-33.18 18.247-3.906 1.505-7.037 1.552-10.113-.091 3.012 6.026 6.29 8.729 13.801 10.922 5.434 1.586 18.4.583 27.326-.241 9.582-.885 14.58-3.734 27.621-3.555 12.736.175 22.828 5.013 28.346 8.168 11.385 6.51 19.55 13.732 26.643 25.172 3.896 6.282 6.625 13.37 8.547 20.603 1.922 7.233 2.764 15.334 2.887 22.415.123 7.08-.418 13.402-2.15 19.774-4.05 14.918-12.988 30.098-31.346 27.753-11.234-1.436-28.17-22.522-33.842-30.258-11.445-15.613-23.22-32.89-37.602-45.892-8.768-7.925-20.773-13.38-32.562-14.458-22.117-2.024-28.676 2.177-45.324 15.899 3.387 1.08 6.693 1.676 10.164 3.24 7.703 3.47 14.748 7.957 20.893 13.71 6.44 6.032 9.328 9.849 9.557 18.485.152 5.735-4.566 10.333-8.89 14.469-2.647 2.533-6.149 4.852-8.292 6.818-2.84 2.609-6.357 5.463-2.789 9.619 1.342 1.562 3.672 2.74 5.637 4.199 3.12 2.315 1.691 10.919-2.418 13.2-5.258 2.918-11.54 2.592-15.877-1.313 5.473-.82 8.95-1.545 8.807-6.022-.082-2.595-3.38-4.751-6.619-6.227-7.809-3.56-13.707-3.035-21.479-8.627-7.85-5.651-8.023-8.745-10.145-17.617-3.785.396-7.27.483-12.33 2.159-5.062 1.675-10.655 5.663-15.25 6.65-11.572 2.49-13.878 1.752-20.21.113-11.15-2.886-25.669 2.055-40.09 6.668-2.399.767-12.098.026-18.627 2.317-10.084 3.538-24.233 12.106-32.405 18.988-12.382 10.429-28.654 41.64-37.848 77.464-.966 10.89 2.131 18.227-4.729 23.546-6.86 5.319-6.67 18.946-8.996 22.768-2.326 3.82-5.019 2.132-10.026 7.499-5.007 5.367-7.556 4.47-7.43 14.618 4.315-2.837 10.606-6.135 16.13-6.334 4.892-.177 4.944 6.264 17.5-6.15 6.715-6.64 19.616-6.843 28.567-9.772 8.952-2.93 25.083-8.965 41.24-27.027 16.155-18.062 23.886-37.077 27.02-64.567.498 4.874 1.364 10.37-.723 23.816-2.087 13.445-6.585 28.546 2.891 46.634l5.904 11.269c-3.515-4.797-10.38-12.622-12.448-18.198l-4.768-12.863c-10.667 16.748-13.119 19.744-27.937 31.743-.59 7.444-.735 15.208 1.698 22.33 2.433 7.123-1.445 15.333.406 20.024 1.851 4.69 6.132 2.02 7.53 6.77 1.398 4.749-.73 14.138 1.438 18.767s7.487 1.82 10.065 3.315c2.578 1.496 3.421 3.546 4.8 5.513 1.378 1.966-.539 6.614 2.265 8.123 2.803 1.51 7.176.23 10.093 1.68 2.917 1.449 3.36 4.932 2.661 8.053-.7 3.12-3.817 4.553-5.186 7.726-1.368 3.174-1.215 5.383.43 8.297 1.643 2.915 5.283 4.52 8.911 5.99 3.628 1.472 8.726.646 12.47 2.68 3.744 2.034 7.11 6.087 9.086 9.033 1.977 2.945 2.526 5.023 2.425 8.12-.102 3.096-1.358 6.663-3.01 9.654-1.654 2.99-5.3 6.63.393 12.343 5.694 5.71 5.484 3.249 8.746 6.954-.355-6.41-3.003-11.63-1.067-16.455 1.937-4.825 7.752-5.664 10.817-7.834 3.065-2.171 4.83-5.153 7.246-7.73-.035 3.316.32 6.88-.057 9.376-.768 5.075-2.266 9.58 5.297 10.394 3.407.366 6.642-1.843 10.227-3.17-1.878 3.364-5.144 6.068-5.635 10.093-.49 4.023.1 8.443 2.885 12.436 2.787 3.99 7.6 6.955 11.125 9.3 3.525 2.348 5.414 2.536 8.123 3.805.133 3.956-.646 8.143-.195 11.869.451 3.726 1.625 7.024 3.78 10.104 2.155 3.08 5.612 4.848 8.868 7.126-1.785-4.157-5.406-8.101-5.357-12.471.05-4.37 1.36-7.466 5.621-11.343 4.262-3.878 14.24-7.241 18.945-11.011 4.705-3.771 6.223-6.081 7.912-9.742 1.69-3.661 1.22-9.56 1.531-12.85 1.55 4.61 1.77 6.043 2.273 10.866.506 4.824-2.81 11.59-4.215 15.16 5.82-2.81 9.514-7.303 11.38-11.694 1.247.74.618 2.769 1.077 6.679 2.074-2.064 4.432-3.652 6.52-5.6 2.09-1.946 4.38-3.658 5.416-6.375 1.035-2.717.611-5.606-.16-8.763-.77-3.157-4.299-6.818-6.199-10.271-1.898-3.452.336-6.841.207-11.001-3.8-.653-7.029-2.59-11.398-1.96-4.37.628-9.377 5.533-13.844 5.59-4.467.057-6.975-4.128-10.637-5.278-3.662-1.15-7.367-1.024-11.049-1.536 4.664-4.468 22.766-6.596 35.148-8.615 10.895-1.777 21.707-2.804 32.746-2.96 4.93-.07 11.266 1.559 14.69.575 3.425-.982 2.694-3.315 3.71-5.858 2.842-7.108 1.441-13.438-.105-20.596-9.91-1.162-20.236-2.584-30.22-1.817-9.763.75-21.323 5.39-31.392 5.705-8.754.272-21.717-1.677-29.234-6.26-9.186-5.598-16.293-17.623-18.816-21.484-4.109-6.29-9.292-18.627-12.446-24.268-3.152-5.641-3.847-7.22-6.47-9.574-2.623-2.354-6.216-2.536-9.323-3.805 3.582.366 7.493-.768 10.747 1.098 4.89 2.805 10.361 14.43 13.403 19.49 3.223-10.804 2.471-15.052 11.797-21.144-7.516 8.424-7.703 14.805-9.535 24.723 6.25 10.258 14.94 26.598 26.31 31.132 4.106 1.639 11.16 2.667 15.6 3.216 13.817 1.71 27.145-2.668 40.716-6.02 9.92-2.45 19.986-1.462 32.051-.753 4.096.24 13.754-2.224 15.754-6.367 1.08-2.235 1-4.921-.55-7.303-1.554-2.382-5.69-3.534-7.907-5.678-2.217-2.144-3.492-4.69-5.238-7.034-9.215 1.768-16.795 2.447-23.635 2.633 4.906-2.021 9.613-3.174 14.72-5.171 5.105-1.997 10.903-5.275 15.024-7.995 4.121-2.721 6.752-4.3 9.734-7.465 2.98-3.168 6.803-6.431 9-10.303 2.2-3.872 2.54-8.203 2.662-12.995.123-4.791-.084-11.514-1.932-15.374-1.846-3.86-5.406-5.03-8.266-5.943-2.86-.913-4.82 1.396-7.795 1.708-2.977.312-5.758 2.188-10.062.164-4.304-2.024-9.406-6.144-13.758-12.26-4.35-6.115-7.46-16.111-11.896-23.801-7.645-13.256-17.172-25.64-26.283-37.922-.75-3.03-1.877-7.215-2.252-11.324-.654-7.16-.777-14.598 1.445-21.578 1.703-5.347 4.18-10.995 9.78-13.188 2.24-.878 5.073-1.226 7.075-.484 2.004.74 3.97 3.002 3.182 5.614-.865 2.872-2.855 2.95-4.207 4.4-2.295 2.46-3.213 4.265-4.08 7.332 2.48-.04 5.832-.23 7.87.307 2.657.7 5.132 2.462 6.481 6.228-3.172-2.813-4.748-4.104-8.707-4.204-1.814-.045-4.018.604-6.025.906-.75 2.44-1.19 5.432-2.25 7.32-1.059 1.888-3.12 1.435-3.895 3.64-.774 2.203-.819 5.789-.429 8.684zm27.715-3.307c1.215.479 1.678.584 3.217 1.755 1.54 1.17 3.662 2.34 4.881 5.138 1.221 2.799 1.164 7.127.904 8.89-1.07-.314-2.529-.102-3.639-1.051-1.107-.95-1.768-3.098-3.188-4.018-1.422-.92-2.607-.718-4.178-.917.807 2.296 1.2 4.593.824 6.675-.814 4.545-3.486 6.847-7.812 7.39-1.889.238-4.889-.384-6.533-.683.762 1.702 2.053 3.193 2.816 4.895 3.658-.53 6.37-.454 8.336-1.374 1.967-.92 4.076-2.981 6.6-3.854 2.525-.873 4.777-.86 7.54-1.29-2.177 1.875-3.605 3.75-5.778 5.626l4.781 13.897c3.38 2.114 6.55 3.228 10.807 5.838 4.26 2.61 9.367 7.28 14.914 9.828 5.547 2.547 8.85 3.933 14.646 5.026 5.795 1.093 10.406 5.787 16.11 6.55 5.702.763 16.354.917 20.75.488 4.99-.487 11.472-3.062 12.054-8.533-4.184 1.032-10.574.106-13.8-7.767-1.433-3.496-.73-9.925-2.923-14.06-2.19-4.134-5.246-5.461-8.896-10.555-3.65-5.094-9.62-13.13-12.973-19.954-3.35-6.824-4.139-14.554-6.973-20.67-2.834-6.113-7.109-11.052-10.422-15.765-7.234-10.3-13.068-17.34-24.986-22.535-5.732-2.5-12.258-3.165-18.387-4.748-2.494 1.117-5.914 2.35-6.52 5.268-.608 2.917.558 7.225 2.675 9.415 3.543 3.66 8.793 7.618 10.857 13.437 1.326 3.734 1.711 16.252.562 19.649-1.192 3.527-3.963 5.66-6.266 8.009zm1.154 29.629c-1.107.955-1.95 1.936-3.732 2.729-1.779.793-4.209.998-6.57 1.588 3.311 5.154 6.79 10.362 9.961 15.78 3.174 5.419 5.924 11.352 8.953 17.026-.143-3.252.05-6.72-.424-9.758-.473-3.038-1.85-5.697-3.215-10.258-1.363-4.561-3.04-10.766-4.973-17.107zm-89.085-113.324c-.467 5.07.391 12.996 1.441 17.96 1.258 5.942 2.47 9.023 7.291 12.603 8.83 6.555 14.467 5.45 21.26 9.25 3.232 1.81 7.328 4.842 8.523 8.047 1.195 3.205-.789 6.685-3.24 8.053 4.287.638 9.094-4.195 7.088-9.157-.988-2.442-5.69-3.53-7.133-5.994-1.439-2.463-1.436-5-.758-7.501 1.225-4.51 10.148-8.608 13.301-12.173 4.852-5.486 6.715-10.075 3.967-17.14-3.859-9.925-18.768-17.89-27.69-21.784-4.087-1.783-6.378-1.91-9.565-2.865 6.525 3.824 13.404 6.87 16.705 15.418 2.756 7.139.37 9.829.461 16.045.043 2.882 3.838 4.323 5.523 6.144 1.467 1.583 1.348 2.758.176 4.943-.129-1.971-.97-3.442-2.484-4.513-2.498-1.771-5.189-1.39-6.52-5.021-2.02-5.52 1.986-10.748-2.518-16.946-3.369-4.637-7.85-9.827-13.895-9.963-2.86-.065-5.012.367-8.068 1.27l-4.074-4.902-.094-.064c-8.287-7.563-13.957-13.796-25.582-18.994-11.625-5.197-17.354-5.984-30.683-5.688-13.329.295-26.557 1.41-41.995 14.723-15.437 13.313-55.224 64.292-64.873 70.744-9.648 6.452-11.785 8.638-23.84 8.64-12.057.004-30.873-17.05-31.61-38.361-.738-21.313-1.034-28.888 13.781-54.563 14.816-25.676 41.656-33.56 61.57-36.222 19.915-2.662 31.882 4.352 46.613 4.385 14.73.034 29.288-2.51 33.581-14.224-2.1 1.25-4.916 2.66-12.832 2.246-7.916-.415-18.892-9.58-31.239-15.721-12.347-6.14-26.087-6.86-43.71-7.192-17.623-.333-39.613 1.014-61.399 12.775-21.786 11.76-36.657 24.24-49.293 47.258-12.637 23.02-14.525 41.814-12.488 69.685 2.037 27.87 10.633 48.599 27.184 68.998 16.551 20.399 33.092 30.38 62.918 34.09l6.28-27.695-11.21 16.086.277-17.891-10.139 12.58-4.447-17.061-8.214 13.679-4.08-19.05-11.903 9.627 3.768-15.72-15.75 1.744 7.235-10.926-14.36.175 8.355-14.587-12.742-2.023 10.16-13.267-15.6-4.625 12.916-12.368-12.753-10.393 9.975-7.758-9.328-12.412 9.95-11.583-3.714-15.296 8.45-7.365 2.514-17.481 9.482-4.762 8.158-13.646 15.08-1.601 7.44-12.274 15.144.77 14.312-7.778 14.843 3.457 16.86-5.092 12.487 2.926 16.296 2.395 15.733 12.58-24.133-8.424-12.14 5.82-10.035-6.124-6.909 4.693-12.225 1.224-10.963-.708-7.992 9.756-16.29.168L80.02 50.84l-14.486 5.082-1.355 15.107-10.388 8.138 3.461 14.216-8.97 14.765 6.881 12.915-6.773 11.82 9.011 5.88-2.044 18.998 12.532 3.158 2.823 14.093 13.656-1.42 8.484 9.657 10.486-10.24c19.116-9.531 26.988-14.863 41.886-30.976 16.96-18.343 26.68-35.302 49.27-47.861 16.201-9.008 29.416-12.25 47.616-9.105 17.088 2.952 22.81 13.202 35.395 24 1.334-2.415 1.605-3.055 3.803-4.833-.69 3.136-1.786 6.389-2.065 9.405z"/></svg>